# xmcd
#
# Track frame offsets:
#       150
#       15637
#       27267
#       39905
#       59680
#       78415
#       99690
#       114880
#       128877
#       144117
#
# Disc length: 2105 seconds
#
# Revision: 1
# Processed by: cddbd v1.4PL0 Copyright (c) Steve Scherf et al.
# Submitted via: MusiCat 1.1
#
DISCID=7808370a
DTITLE=Darrell Mccall - A Way To Survive
DYEAR=1900
DGENRE=
TTITLE0=Set Me Down Where Country Music Plays
TTITLE1=Reconsider Leaving  Me
TTITLE2=Hide na d Go Cheat
TTITLE3=After Texas
TTITLE4=I Guess I'm Gettin Tired Of Loving You
TTITLE5=Secret Memories
TTITLE6=Wall Of pictures
TTITLE7=As Long as I'm Dreaming
TTITLE8=If It Ain't Broke Don't Fix It
TTITLE9=A Way To Survive
EXTD=\n\n
EXTT0=
EXTT1=
EXTT2=
EXTT3=
EXTT4=
EXTT5=
EXTT6=
EXTT7=
EXTT8=
EXTT9=
PLAYORDER=
